<svg xmlns="http://www.w3.org/2000/svg" xmlns:xlink="http://www.w3.org/1999/xlink" width="26" height="22" viewBox="0 0 26 22"><defs><path id="vm3ka" d="M516.51 5314.6a5.4 5.4 0 0 1 4.15 1.65 8.5 8.5 0 0 0 2.7-.9l.65-.37a5.25 5.25 0 0 1-1.7 2.47c-.18.14-.36.32-.58.4v.02c1.14-.01 2.08-.52 2.97-.8a8.5 8.5 0 0 1-1.78 2.05l-.82.65c.01 1.21-.02 2.36-.24 3.38-1.32 5.9-4.8 9.9-10.3 11.6-1.97.62-5.16.88-7.42.32a19.2 19.2 0 0 1-3.1-1.01 12.3 12.3 0 0 1-1.48-.77l-.46-.28c.51.01 1.1.15 1.68.06.51-.08 1.02-.06 1.5-.16 1.19-.26 2.24-.6 3.15-1.14.44-.26 1.1-.56 1.42-.93a5.27 5.27 0 0 1-4.9-3.64c.52.05 2 .19 2.35-.1a3.85 3.85 0 0 1-1.71-.7 5.05 5.05 0 0 1-2.48-4.5 5.76 5.76 0 0 0 1.64.56c.18.05.52.15.72.07h-.03c-.26-.3-.7-.5-.96-.84a5.37 5.37 0 0 1-1.18-4.76c.14-.51.35-.96.57-1.37l.02.01c.1.22.33.37.48.55.45.56 1 1.06 1.56 1.5a15.46 15.46 0 0 0 6.42 3.1c.7.17 1.52.3 2.36.3-.24-.68-.16-1.8.02-2.46a5.18 5.18 0 0 1 4.14-3.88l.64-.08z"/></defs><g><g transform="translate(-499 -5314)"><use fill="rgba(255, 255, 255, 1)" xlink:href="#vm3ka"/></g></g></svg>