<svg xmlns="http://www.w3.org/2000/svg" xmlns:xlink="http://www.w3.org/1999/xlink" width="26" height="26"><defs><path id="a" d="M632.7 5337.8h-19.2a3.2 3.2 0 0 1-3.2-3.2v-19.2a3.2 3.2 0 0 1 3.2-3.2h19.2a3.2 3.2 0 0 1 3.2 3.2v19.2a3.2 3.2 0 0 1-3.2 3.2zm-9.6-17.76c-2 0-3.71 1.18-4.5 2.88l-.02.05c-.05.1-.1.22-.13.33l-.06.15a5 5 0 0 0-.1.34c0 .05-.02.1-.04.16l-.06.37-.02.15a4.96 4.96 0 1 0 9.86 0l-.02-.15a4.98 4.98 0 0 0-.06-.37l-.04-.16a5 5 0 0 0-.1-.34l-.06-.15-.13-.33c0-.01 0-.03-.02-.05a4.96 4.96 0 0 0-4.5-2.88zm9.92-3.68c0-.7-.57-1.28-1.28-1.28h-2.56c-.7 0-1.28.57-1.28 1.28v2.56c0 .7.57 1.28 1.28 1.28h2.56c.7 0 1.28-.57 1.28-1.28zm0 6.56h-2.36a7.84 7.84 0 1 1-15.12 0h-2.36v10.72c0 .7.57 1.28 1.28 1.28h17.28c.7 0 1.28-.57 1.28-1.28z"/></defs><use fill="#f38181" xlink:href="#a" transform="translate(-610 -5312)"/></svg>